<svg width="173" height="37" viewBox="0 0 173 37" fill="none" xmlns="http://www.w3.org/2000/svg">
<path d="M122.271 27.8882V18.2286M122.271 27.8882L121.057 26.9377C120.371 26.4009 119.441 26.0994 118.471 26.0994H115.413C114.909 26.0994 114.5 25.779 114.5 25.3838V17.8708C114.5 17.4756 114.909 17.1553 115.414 17.1553H118.928C119.898 17.1553 120.828 17.4568 121.514 17.9936L122.271 18.5863L123.029 17.9936C123.715 17.4568 124.645 17.1553 125.615 17.1553H129.586C130.091 17.1553 130.5 17.4756 130.5 17.8708V25.3838C130.5 25.779 130.091 26.0994 129.586 26.0994H126.072C125.102 26.0994 124.172 26.4009 123.486 26.9377L122.271 27.8882Z" stroke="#D3D3D3" stroke-width="2" stroke-linecap="round" stroke-linejoin="round"/>
<path d="M118.373 15.1848C118.997 14.1435 120.365 13.4308 122.5 13.4308C124.635 13.4308 126.003 14.1435 126.627 15.1848M124.196 9.81522C124.196 10.7517 123.436 11.5109 122.5 11.5109C121.564 11.5109 120.804 10.7517 120.804 9.81522C120.804 8.87874 121.564 8.11957 122.5 8.11957C123.436 8.11957 124.196 8.87874 124.196 9.81522Z" stroke="#D3D3D3" stroke-width="2" stroke-linecap="round"/>
<path d="M42.0078 19.8672L45.3008 25.0703C45.707 25.7109 46.1016 26.1914 46.4844 26.5117C46.8672 26.832 47.3125 26.9922 47.8203 26.9922H47.8906V28H47.5508C46.8008 28 46.1836 27.9727 45.6992 27.918C45.2227 27.8633 44.8164 27.7578 44.4805 27.6016C44.1445 27.4453 43.8555 27.2266 43.6133 26.9453C43.3789 26.6641 43.125 26.2969 42.8516 25.8438L39.6055 20.4414H37.6133V25.3867C37.6133 26.0508 37.793 26.4844 38.1523 26.6875C38.5117 26.8906 38.9883 26.9922 39.582 26.9922H39.8984V28H32.9141V26.9922H33.2188C33.8125 26.9922 34.2891 26.8906 34.6484 26.6875C35.0078 26.4844 35.1875 26.0508 35.1875 25.3867V13.5039C35.1875 12.832 35.0039 12.3945 34.6367 12.1914C34.2695 11.9805 33.7969 11.875 33.2188 11.875H32.9141V10.8672H39.3711C43.4805 10.8672 45.5352 12.4102 45.5352 15.4961C45.5352 16.1367 45.4297 16.6992 45.2188 17.1836C45.0156 17.6602 44.7461 18.0742 44.4102 18.4258C44.0742 18.7773 43.6953 19.0703 43.2734 19.3047C42.8516 19.5391 42.4297 19.7266 42.0078 19.8672ZM39.2422 12.0156H37.6133V19.3164H39.3008C40.6602 19.3164 41.6211 19.0039 42.1836 18.3789C42.4648 18.0664 42.6641 17.6758 42.7812 17.207C42.9062 16.7383 42.9688 16.1914 42.9688 15.5664C42.9688 14.2773 42.6875 13.3633 42.125 12.8242C41.5547 12.2852 40.5938 12.0156 39.2422 12.0156ZM59.1523 19.6211H53.3633V26.8047H57.9922C58.7109 26.8047 59.25 26.6211 59.6094 26.2539C59.9688 25.8867 60.1914 25.4141 60.2773 24.8359L60.4414 23.8047H61.6953L61.5312 28H48.6641V26.9922H48.9688C49.5625 26.9922 50.0391 26.8906 50.3984 26.6875C50.7578 26.4844 50.9375 26.0508 50.9375 25.3867V13.5977C50.9375 12.8945 50.7578 12.4336 50.3984 12.2148C50.0469 11.9883 49.5703 11.875 48.9688 11.875H48.6641V10.8672H60.7578L60.875 15.0625H59.6328L59.5156 14.0312C59.4453 13.4531 59.2461 12.9805 58.918 12.6133C58.5898 12.2461 58.082 12.0625 57.3945 12.0625H53.3633V18.4492H59.1523V19.6211ZM71.7734 10.6211C72.5938 10.6211 73.3047 10.6914 73.9062 10.832C74.5156 10.9648 75.0234 11.1523 75.4297 11.3945C76.2266 11.8711 76.625 12.5117 76.625 13.3164C76.625 13.8398 76.4219 14.25 76.0156 14.5469C75.6172 14.8438 75.125 14.9922 74.5391 14.9922C74.5391 14.4453 74.4414 13.9375 74.2461 13.4688C74.0508 13 73.7461 12.6211 73.332 12.332C72.918 12.043 72.3828 11.8984 71.7266 11.8984C70.8203 11.8984 70.0508 12.0664 69.418 12.4023C68.7852 12.7305 68.2695 13.2109 67.8711 13.8438C67.4727 14.4844 67.1836 15.2734 67.0039 16.2109C66.8242 17.1406 66.7344 18.207 66.7344 19.4102C66.7344 20.4805 66.8281 21.4609 67.0156 22.3516C67.2031 23.2422 67.5 24.0039 67.9062 24.6367C68.3125 25.2773 68.8281 25.7734 69.4531 26.125C70.0859 26.4766 70.8438 26.6523 71.7266 26.6523C72.3125 26.6523 72.8281 26.5977 73.2734 26.4883C73.7266 26.3711 74.125 26.2188 74.4688 26.0312C74.8125 25.8438 75.1133 25.6289 75.3711 25.3867C75.6367 25.1367 75.8711 24.8789 76.0742 24.6133C76.207 24.6992 76.3164 24.8164 76.4023 24.9648C76.4883 25.1133 76.5312 25.3086 76.5312 25.5508C76.5312 25.8555 76.4258 26.168 76.2148 26.4883C76.0117 26.8008 75.6992 27.0859 75.2773 27.3438C74.8555 27.6016 74.3203 27.8164 73.6719 27.9883C73.0234 28.1523 72.2539 28.2344 71.3633 28.2344C70.168 28.2344 69.1172 28.0234 68.2109 27.6016C67.3047 27.1797 66.5469 26.582 65.9375 25.8086C65.3203 25.0352 64.8555 24.1055 64.543 23.0195C64.2305 21.9336 64.0742 20.7305 64.0742 19.4102C64.0742 18.1133 64.2383 16.9258 64.5664 15.8477C64.9023 14.7695 65.3906 13.8438 66.0312 13.0703C66.6797 12.2969 67.4805 11.6953 68.4336 11.2656C69.3945 10.8359 70.5078 10.6211 71.7734 10.6211ZM93.8867 19.4102C93.8867 22.1055 93.2383 24.2383 91.9414 25.8086C91.3008 26.582 90.5117 27.1797 89.5742 27.6016C88.6367 28.0234 87.5625 28.2344 86.3516 28.2344C85.0781 28.2344 83.9688 28.0234 83.0234 27.6016C82.0781 27.1797 81.293 26.582 80.668 25.8086C80.043 25.0352 79.5742 24.1055 79.2617 23.0195C78.9492 21.9258 78.793 20.7148 78.793 19.3867C78.793 18.0586 78.9492 16.8555 79.2617 15.7773C79.5742 14.6914 80.043 13.7656 80.668 13C81.293 12.2344 82.082 11.6445 83.0352 11.2305C83.9883 10.8086 85.1016 10.5977 86.375 10.5977C87.5859 10.5977 88.6562 10.8086 89.5859 11.2305C90.5156 11.6445 91.3008 12.2344 91.9414 13C93.2383 14.5703 93.8867 16.707 93.8867 19.4102ZM81.4531 19.4102C81.4531 20.5977 81.5391 21.6562 81.7109 22.5859C81.8906 23.5156 82.1758 24.3047 82.5664 24.9531C82.957 25.5938 83.4609 26.0859 84.0781 26.4297C84.7031 26.7734 85.4609 26.9453 86.3516 26.9453C87.2422 26.9453 88 26.7734 88.625 26.4297C89.25 26.0859 89.7539 25.5938 90.1367 24.9531C90.5273 24.3047 90.8047 23.5156 90.9688 22.5859C91.1406 21.6562 91.2266 20.5977 91.2266 19.4102C91.2266 18.2227 91.1406 17.1641 90.9688 16.2344C90.8047 15.2969 90.5273 14.5078 90.1367 13.8672C89.7539 13.2266 89.2539 12.7383 88.6367 12.4023C88.0195 12.0664 87.2656 11.8984 86.375 11.8984C85.4844 11.8984 84.7266 12.0664 84.1016 12.4023C83.4766 12.7383 82.9688 13.2266 82.5781 13.8672C82.1797 14.5078 81.8906 15.2969 81.7109 16.2344C81.5391 17.1641 81.4531 18.2227 81.4531 19.4102Z" fill="#D3D3D3"/>
<path d="M1.81979 36L24.0495 1H170.68L148.45 36H1.81979Z" stroke="#D3D3D3" stroke-width="2"/>
</svg>
