<svg width="214" height="204" viewBox="0 0 214 204" fill="none" xmlns="http://www.w3.org/2000/svg">
<rect y="2" width="214" height="202" fill="white"/>
<path d="M85.9062 91.5335C89.0691 86.2579 96.0011 82.6472 106.816 82.6472C117.631 82.6472 124.563 86.2579 127.726 91.5335M115.407 64.3293C115.407 69.0739 111.56 72.9201 106.816 72.9201C102.071 72.9201 98.2251 69.0739 98.2251 64.3293C98.2251 59.5847 102.071 55.7385 106.816 55.7385C111.56 55.7385 115.407 59.5847 115.407 64.3293Z" stroke="#023047" stroke-width="2" stroke-linecap="round"/>
<path d="M105.827 149.733V97.6296M105.827 149.733L99.2608 144.606C95.5529 141.711 90.5262 140.084 85.2825 140.084H68.7511C66.0213 140.084 63.8126 138.356 63.8126 136.225V95.6998C63.8126 93.5683 66.0256 91.8403 68.7554 91.8403H87.7517C92.9954 91.8403 98.0243 93.4668 101.732 96.362L105.827 99.5593L109.922 96.362C113.63 93.4668 118.659 91.8403 123.902 91.8403H145.37C148.1 91.8403 150.313 93.5683 150.313 95.6998V136.225C150.313 138.356 148.1 140.084 145.37 140.084H126.374C121.13 140.084 116.101 141.711 112.393 144.606L105.827 149.733Z" stroke="#023047" stroke-width="2" stroke-linecap="round" stroke-linejoin="round"/>
<circle cx="106.5" cy="102.5" r="85.5" stroke="#023047" stroke-width="4"/>
<rect x="90" y="2" width="33" height="27" fill="white"/>
<rect x="90" y="177" width="33" height="27" fill="white"/>
<rect x="181" y="89" width="33" height="27" fill="white"/>
<rect y="91" width="33" height="27" fill="white"/>
<path d="M95.1821 25.1875C96.8941 22.3319 100.646 20.3776 106.5 20.3776C112.354 20.3776 116.106 22.3319 117.818 25.1875M111.15 10.4625C111.15 13.0306 109.068 15.1125 106.5 15.1125C103.932 15.1125 101.85 13.0306 101.85 10.4625C101.85 7.89438 103.932 5.8125 106.5 5.8125C109.068 5.8125 111.15 7.89438 111.15 10.4625Z" stroke="#023047" stroke-width="2" stroke-linecap="round"/>
<path d="M95.1821 196.187C96.8941 193.332 100.646 191.378 106.5 191.378C112.354 191.378 116.106 193.332 117.818 196.187M111.15 181.462C111.15 184.031 109.068 186.112 106.5 186.112C103.932 186.112 101.85 184.031 101.85 181.462C101.85 178.894 103.932 176.812 106.5 176.812C109.068 176.812 111.15 178.894 111.15 181.462Z" stroke="#023047" stroke-width="2" stroke-linecap="round"/>
<path d="M11.1821 114.187C12.894 111.332 16.6462 109.378 22.5 109.378C28.3538 109.378 32.1059 111.332 33.8179 114.187M27.15 99.4625C27.15 102.031 25.0681 104.112 22.5 104.112C19.9319 104.112 17.85 102.031 17.85 99.4625C17.85 96.8944 19.9319 94.8125 22.5 94.8125C25.0681 94.8125 27.15 96.8944 27.15 99.4625Z" stroke="#023047" stroke-width="2" stroke-linecap="round"/>
<path d="M180.182 114.187C181.894 111.332 185.646 109.378 191.5 109.378C197.354 109.378 201.106 111.332 202.818 114.187M196.15 99.4625C196.15 102.031 194.068 104.112 191.5 104.112C188.932 104.112 186.85 102.031 186.85 99.4625C186.85 96.8944 188.932 94.8125 191.5 94.8125C194.068 94.8125 196.15 96.8944 196.15 99.4625Z" stroke="#023047" stroke-width="2" stroke-linecap="round"/>
</svg>
